<?xml version="1.0" standalone="no"?>
<!DOCTYPE svg PUBLIC "-//W3C//DTD SVG 20010904//EN"
 "http://www.w3.org/TR/2001/REC-SVG-20010904/DTD/svg10.dtd">
<svg version="1.0" xmlns="http://www.w3.org/2000/svg"
 width="700.000000pt" height="700.000000pt" viewBox="0 0 700.000000 700.000000"
 preserveAspectRatio="xMidYMid meet">
<metadata>
Created by potrace 1.14, written by Peter Selinger 2001-2017
</metadata>
<g transform="translate(0.000000,700.000000) scale(0.100000,-0.100000)"
fill="#000000" stroke="none">
<path d="M3210 6991 c-19 -4 -50 -6 -67 -5 -18 0 -33 -2 -33 -6 0 -4 -17 -7
-37 -7 -21 0 -56 -3 -78 -7 -22 -4 -49 -8 -60 -10 -133 -22 -133 -22 -137 -25
-2 -2 -14 -4 -28 -6 -14 -3 -32 -6 -40 -8 -8 -2 -34 -8 -57 -12 -24 -4 -43
-12 -43 -17 0 -5 -4 -7 -9 -4 -5 4 -36 -2 -68 -12 -33 -10 -67 -18 -76 -16 -9
1 -15 -2 -11 -7 3 -5 -1 -9 -8 -10 -30 -1 -63 -10 -68 -18 -3 -4 -13 -7 -22
-5 -10 1 -18 -2 -18 -8 0 -6 -7 -8 -15 -4 -8 3 -15 2 -15 -3 0 -5 -16 -12 -35
-15 -19 -4 -35 -11 -35 -17 0 -6 -4 -8 -9 -4 -5 3 -12 1 -16 -5 -4 -6 -11 -8
-16 -5 -5 4 -9 2 -9 -4 0 -5 -9 -8 -20 -6 -11 2 -20 0 -20 -6 0 -5 -4 -9 -10
-9 -5 0 -35 -12 -67 -27 -32 -15 -62 -26 -66 -25 -4 1 -10 -5 -13 -13 -3 -8
-11 -12 -16 -9 -6 4 -13 2 -17 -4 -4 -7 -17 -13 -30 -15 -12 -2 -26 -8 -29
-14 -4 -6 -20 -15 -35 -18 -15 -4 -27 -11 -27 -17 0 -5 -4 -7 -9 -3 -6 3 -14
-2 -19 -11 -5 -9 -13 -16 -18 -16 -17 -1 -94 -42 -94 -50 0 -4 -7 -8 -15 -8
-8 0 -15 -4 -15 -10 0 -5 -3 -9 -7 -8 -11 4 -173 -104 -173 -114 0 -5 -4 -7
-9 -3 -6 3 -13 -1 -18 -9 -4 -8 -12 -15 -16 -15 -10 0 -64 -40 -85 -63 -9 -10
-20 -18 -25 -18 -5 0 -25 -16 -45 -35 -20 -19 -40 -35 -44 -35 -3 0 -32 -24
-63 -54 -31 -30 -59 -56 -63 -57 -15 -6 -31 -27 -24 -34 4 -4 2 -5 -4 -3 -12
3 -167 -150 -241 -238 -24 -28 -53 -62 -65 -76 -13 -14 -32 -38 -43 -54 -11
-16 -30 -39 -41 -51 -12 -12 -19 -24 -16 -27 3 -3 0 -6 -6 -6 -7 0 -12 -6 -12
-14 0 -8 -7 -16 -15 -20 -8 -3 -15 -12 -15 -21 0 -8 -3 -15 -7 -15 -5 0 -21
-23 -38 -50 -16 -27 -34 -50 -38 -50 -5 0 -6 -4 -3 -9 3 -5 -1 -12 -10 -15 -8
-3 -13 -10 -10 -15 3 -4 -3 -16 -14 -26 -11 -10 -20 -22 -20 -26 0 -5 -18 -38
-40 -74 -22 -35 -42 -76 -46 -90 -3 -14 -9 -24 -12 -21 -3 4 -58 -95 -67 -124
-1 -3 -18 -40 -38 -83 -21 -43 -37 -85 -37 -93 0 -7 -4 -14 -10 -14 -5 0 -10
-6 -10 -13 0 -7 -12 -42 -26 -78 -14 -35 -27 -68 -28 -74 -2 -5 -6 -17 -9 -25
-18 -47 -41 -126 -39 -134 2 -4 -3 -14 -9 -22 -6 -8 -8 -14 -4 -14 4 0 2 -7
-5 -15 -7 -8 -10 -22 -6 -30 3 -9 0 -18 -8 -21 -8 -3 -12 -14 -9 -25 3 -10 0
-19 -6 -19 -5 0 -8 -7 -5 -15 4 -8 3 -23 -2 -32 -4 -10 -8 -26 -9 -35 -2 -10
-3 -19 -4 -20 -2 -2 -4 -13 -7 -25 -2 -13 -6 -33 -8 -45 -3 -13 -5 -23 -6 -23
-1 0 -3 -9 -4 -20 -2 -11 -6 -42 -11 -70 -5 -27 -10 -61 -11 -75 -1 -14 -3
-25 -4 -25 -3 0 -11 -84 -13 -147 -1 -32 -5 -58 -9 -58 -12 0 -7 -524 5 -532
9 -6 8 -8 -1 -8 -7 0 -11 -4 -8 -9 3 -4 8 -35 11 -67 10 -93 24 -201 31 -239
3 -11 7 -35 10 -54 3 -18 8 -43 11 -55 3 -11 5 -29 5 -38 -1 -10 3 -18 8 -18
4 0 7 -13 6 -30 -1 -16 2 -30 8 -30 5 0 7 -3 3 -6 -3 -3 -2 -17 3 -30 10 -26
21 -70 22 -91 1 -7 5 -13 10 -13 5 0 7 -4 4 -9 -5 -7 5 -47 25 -96 4 -11 14
-40 20 -65 7 -25 16 -49 21 -55 4 -5 8 -15 8 -21 0 -7 5 -25 12 -41 6 -15 11
-31 10 -35 -1 -5 3 -8 10 -8 6 0 9 -3 6 -6 -6 -5 9 -41 63 -161 10 -23 19 -47
19 -52 0 -6 5 -11 11 -11 5 0 7 -4 4 -10 -3 -5 -1 -10 4 -10 6 0 10 -3 9 -7
-2 -8 53 -124 63 -133 3 -3 19 -30 35 -60 42 -78 57 -102 72 -118 6 -7 12 -17
12 -22 0 -5 6 -15 12 -22 7 -7 19 -25 27 -40 8 -15 22 -37 33 -47 10 -11 18
-24 18 -29 0 -5 9 -17 20 -27 11 -10 20 -23 20 -29 0 -7 8 -19 18 -27 9 -9 26
-29 37 -44 11 -16 29 -39 40 -51 11 -12 29 -35 40 -50 41 -57 355 -383 355
-369 0 4 18 -12 39 -34 22 -23 44 -41 50 -41 5 0 14 -6 18 -13 4 -7 28 -28 53
-47 25 -19 46 -38 48 -42 2 -5 10 -8 18 -8 9 0 12 -4 9 -10 -3 -5 0 -10 8 -10
7 0 23 -9 35 -20 12 -11 25 -20 31 -20 5 0 11 -7 15 -15 3 -8 9 -14 13 -13 4
2 24 -9 44 -25 20 -15 41 -27 47 -27 7 0 12 -4 12 -9 0 -5 16 -16 35 -25 19
-9 35 -21 35 -26 0 -6 3 -10 8 -9 14 2 52 -13 52 -21 0 -4 14 -13 30 -20 17
-7 30 -17 30 -22 0 -5 4 -7 9 -3 5 3 17 -2 25 -11 9 -8 16 -12 16 -8 0 3 6 1
13 -5 8 -6 18 -7 22 -3 5 4 5 2 1 -5 -4 -8 3 -15 21 -19 15 -3 34 -13 40 -22
7 -9 13 -12 13 -8 0 4 12 0 28 -8 48 -26 160 -75 186 -82 14 -3 26 -10 26 -15
0 -5 7 -6 15 -3 8 4 15 2 15 -4 0 -5 16 -13 35 -16 19 -4 35 -11 35 -17 0 -6
5 -7 10 -4 6 4 17 1 25 -5 8 -7 15 -9 15 -5 0 4 7 2 15 -5 8 -6 19 -9 25 -5 5
3 10 1 10 -4 0 -6 11 -11 24 -11 14 0 28 -5 31 -10 4 -6 11 -8 16 -5 5 4 9 1
9 -5 0 -6 5 -8 10 -5 6 3 16 3 23 -2 13 -8 31 -13 64 -16 13 -1 23 -4 23 -7 0
-6 113 -33 140 -34 8 0 17 -3 20 -7 3 -4 23 -9 45 -12 22 -3 67 -10 100 -16
33 -6 74 -12 90 -15 17 -2 30 -5 30 -6 0 -1 18 -4 40 -6 22 -2 74 -7 115 -11
99 -10 553 -10 655 0 44 5 99 9 122 10 24 1 43 5 43 9 0 4 12 6 28 4 15 -1 32
1 37 5 6 3 33 9 60 13 28 3 61 8 75 11 41 10 64 15 85 19 47 10 121 28 135 34
22 8 21 8 65 17 22 5 43 8 48 7 4 -1 7 2 7 7 0 5 17 12 37 16 21 4 42 10 48
13 5 4 17 7 25 9 8 1 23 6 35 11 25 12 87 36 98 38 4 1 10 3 15 4 4 1 10 2 15
1 4 0 7 3 7 8 0 5 10 11 23 15 13 3 41 13 63 23 21 9 42 16 47 15 4 -1 7 2 7
6 0 5 18 15 40 22 22 7 40 17 40 22 0 4 3 7 8 6 12 -3 66 25 80 42 8 8 11 9 7
2 -8 -16 0 -15 17 1 7 7 30 21 51 30 20 10 37 22 37 27 0 6 4 9 8 8 12 -4 82
35 82 45 0 4 4 6 8 3 5 -3 18 4 30 14 12 11 24 20 28 20 4 0 29 16 55 35 27
19 53 35 58 35 5 0 12 7 15 16 4 9 9 14 12 11 3 -2 17 6 31 19 14 13 28 22 31
20 2 -3 14 5 26 17 11 13 41 38 66 57 61 48 96 78 147 126 24 23 43 40 43 37
0 -9 222 219 280 288 30 35 59 69 65 75 5 6 17 22 25 34 8 13 37 49 63 81 27
33 45 59 40 59 -4 0 -3 4 3 8 15 9 104 139 104 151 0 5 7 12 16 15 9 4 14 9
10 13 -3 3 5 20 17 37 13 17 34 52 47 79 13 26 28 47 32 47 5 0 7 4 4 9 -3 5
2 19 12 32 21 28 52 92 52 108 0 6 4 11 9 11 5 0 12 13 16 30 4 16 11 30 16
30 5 0 8 3 7 8 -1 4 5 21 12 37 7 17 14 32 14 35 1 3 9 22 20 44 10 21 19 44
20 50 1 6 5 17 9 23 5 7 10 23 12 35 3 12 8 24 12 27 5 3 9 11 9 16 2 10 52
169 62 195 7 19 7 18 16 60 5 19 11 39 14 44 3 6 7 19 8 30 2 22 11 59 14 64
2 1 4 11 5 22 1 11 3 21 5 23 4 5 20 90 25 132 2 17 7 41 10 55 4 14 6 37 6
53 0 15 3 25 7 23 4 -2 7 17 7 42 0 26 4 50 10 54 6 5 5 8 -3 8 -8 0 -10 5 -5
13 4 6 9 23 11 37 7 50 10 610 3 614 -4 3 -6 25 -5 50 1 25 -1 44 -5 42 -3 -2
-6 17 -7 42 -2 70 -10 141 -17 149 -4 3 -7 23 -7 44 0 21 -5 41 -10 44 -7 4
-7 12 0 25 7 13 6 20 -2 22 -7 3 -13 15 -13 29 -1 13 -7 43 -13 66 -7 23 -12
45 -11 50 1 4 0 15 -4 23 -9 24 -20 74 -19 83 1 4 -3 7 -9 7 -5 0 -8 4 -5 8 2
4 -7 41 -21 82 -14 41 -25 83 -25 93 1 9 -3 17 -6 17 -4 0 -17 29 -27 65 -11
36 -24 65 -29 65 -5 0 -6 3 -3 7 4 3 0 17 -9 31 -8 13 -13 26 -10 30 3 3 -1
14 -11 24 -9 10 -13 18 -9 18 3 0 0 10 -9 23 -8 13 -12 27 -8 30 3 4 1 7 -6 7
-7 0 -9 5 -6 10 3 6 2 10 -4 10 -5 0 -12 14 -16 30 -4 17 -11 30 -16 30 -5 0
-8 3 -7 8 2 7 -52 122 -62 132 -5 5 -30 48 -53 93 -7 12 -22 36 -34 54 -13 17
-23 33 -23 36 0 10 -83 132 -92 135 -4 2 -8 8 -8 12 0 16 -47 79 -54 73 -3 -4
-6 0 -6 8 0 8 -13 29 -29 47 -17 17 -27 32 -24 32 4 0 -3 9 -14 20 -12 11 -34
36 -50 57 -68 92 -417 442 -442 443 -3 0 -22 16 -41 35 -19 19 -40 35 -48 35
-7 0 -10 5 -7 10 3 6 -1 10 -9 10 -9 0 -16 5 -16 10 0 6 -5 10 -11 10 -7 0
-19 8 -28 18 -17 17 -33 29 -85 60 -16 9 -36 25 -45 35 -8 9 -19 17 -24 17 -5
0 -23 11 -41 25 -18 14 -38 25 -44 25 -7 0 -12 4 -12 9 0 5 -8 11 -17 14 -18
6 -73 37 -83 47 -3 3 -27 16 -55 30 -27 14 -56 31 -63 38 -7 6 -22 12 -31 12
-10 0 -24 7 -31 15 -7 8 -16 15 -21 15 -5 0 -39 15 -76 32 -38 18 -71 33 -75
33 -3 0 -10 3 -14 8 -4 4 -16 7 -26 7 -10 0 -18 5 -18 10 0 6 -8 10 -18 10
-10 0 -23 5 -30 12 -7 7 -12 8 -12 4 0 -5 -7 -3 -15 4 -8 7 -15 10 -15 6 0 -3
-16 3 -36 14 -19 11 -33 16 -29 10 3 -6 0 -7 -9 -4 -9 3 -16 10 -16 16 0 5 -5
6 -10 3 -6 -4 -16 -2 -23 3 -10 8 -57 24 -79 26 -3 1 -9 4 -13 8 -4 4 -13 4
-21 1 -8 -3 -14 -1 -14 4 0 5 -6 10 -12 11 -7 0 -24 3 -38 7 -14 3 -36 8 -49
11 -14 3 -29 8 -35 12 -6 3 -19 5 -28 4 -10 -2 -18 0 -18 5 0 4 -10 9 -22 9
-13 1 -34 4 -48 7 -51 12 -86 18 -125 23 -22 2 -47 7 -55 10 -8 4 -30 8 -49 9
-18 2 -54 6 -80 10 -25 4 -68 10 -96 13 -79 7 -586 10 -625 3z"/>
</g>
</svg>
